<?xml version="1.0" encoding="utf-8"?>
<!-- Generator: Adobe Illustrator 24.0.2, SVG Export Plug-In . SVG Version: 6.00 Build 0)  -->
<svg version="1.1" id="Layer_1" xmlns="http://www.w3.org/2000/svg" xmlns:xlink="http://www.w3.org/1999/xlink" x="0px" y="0px"
	 viewBox="0 0 896 300" style="enable-background:new 0 0 896 300;" xml:space="preserve">
<style type="text/css">
	.st0{fill:#FFFFFF;}
	.st1{font-family:'Poppins-ExtraBold';}
	.st2{font-size:130.8142px;}
</style>
<g>
	<g>
		<g>
			<path class="st0" d="M219.6,136c-4.3,14-11.5,26.4-20,38.2c-13.3,18.4-29.2,34.4-46.5,49c-10.5,8.9-21.2,17.6-31.7,26.3
				c-0.4,0.3-0.7,0.7-1.2,0.7v-11.2c0.3,0,0.6-0.2,1-0.5c10-8.8,20.4-17.2,30.1-26.4c22.8-21.8,39.9-47.3,49.1-77.8
				c1.5-5,2.6-10.2,3.3-15.4c1.2-9-1.6-17.2-7.2-24.2c-9.1-11.5-21.2-17.3-37.4-18c-2.6,0.5-6.7,1.2-10.7,2.1
				c-3.4,0.8-6.3-0.1-7.6-2.9c-1.4-3-0.4-6.3,2.4-8.1c9.6-6.1,20-8.4,31.3-7.4c22.3,2,42.1,19.2,47.1,43
				C224.1,114.5,222.9,125.4,219.6,136z"/>
			<path class="st0" d="M120.2,239.1v11.2c-0.3,0-0.5-0.1-0.9-0.4c-13.2-11.1-26.7-21.9-39.6-33.4c-16.4-14.6-30.5-31.2-41.6-50.2
				c-6.7-11.6-11.9-23.8-14.3-37.1c-2.9-16.3-1.1-31.8,8.6-45.6c11.3-16.1,26.9-24,46.7-23.2c8.4,0.4,16.2,3,23.2,7.6
				c2.3,1.5,3.2,3.6,2.9,6.1c-0.5,4-4,6.1-8,4.8c-20-6.5-42,4.3-51,20.8c-4,7.4-5.2,15.2-3.9,23.4c4.9,32.4,19.4,60,41.5,83.9
				c7.9,8.5,17,15.7,25.7,23.3c3.1,2.7,6.3,5.4,9.4,8.2C119.4,238.9,119.8,239.1,120.2,239.1z"/>
			<path class="st0" d="M157.4,149.9c3.3,6.6,8.6,11.5,14.6,15.6c2.4,1.6,5,3.1,7.4,4.7c0.5,0.3,1.1,0.7,1.5,1.2
				c0.4,0.5,0.9,1.3,0.7,1.8c-0.1,0.5-1,0.9-1.6,1c-3.5,0.5-6.8-0.3-9.9-1.6c-6.8-2.8-12.5-7.1-16.5-13.3c-0.9-1.4-2-2.7-3.2-4
				c-1.6-1.7-3.6-2.5-5.9-1.8c-2.2,0.7-3.2,2.7-3.3,4.8c-0.5,6.6-1,13.2-1.1,19.8c-0.1,4.3,0.5,8.6,0.8,13.2c0,0,0.7,7.2-2.9,1.3
				c-1.4-3.4-3-6.5-4.1-9.9c-2.4-7.5-2.4-15.2-1.6-23c1.4-13.6,2.4-27.3,1.8-41c-0.4-9.3-0.5-18.7-0.5-28.1c0-3.6,0.6-7.2,1-10.8
				c0.1-0.5,0.2-1,0.4-1.6c2.3,1.6,2.8,3.9,3,6.2c0.4,4.8,0.5,9.7,1.2,14.5c0.6,4,1.3,8.1,2.8,11.9c4,9.9,12.2,13.8,22.4,10.8
				c4.3-1.2,8.5-3,12.5-5c7.5-3.6,15.3-4.9,23.5-3.3c0.7,0.1,1.4,0.5,2.1,0.7c0,0.2,0,0.4,0.1,0.5c-1.2,0.4-2.3,0.9-3.5,1.1
				c-12.9,1.8-24.4,7.5-35.6,13.7C155.6,133.7,153.3,141.7,157.4,149.9z"/>
			<path class="st0" d="M88.1,149.4c-3.3,6.6-8.6,11.5-14.6,15.6c-2.4,1.6-5,3.1-7.4,4.7c-0.5,0.3-1.1,0.7-1.5,1.2
				c-0.4,0.5-0.9,1.3-0.7,1.8c0.1,0.5,1,0.9,1.6,1c3.5,0.5,6.8-0.3,9.9-1.6c6.8-2.8,12.5-7.1,16.5-13.3c0.9-1.4,2-2.7,3.2-4
				c1.6-1.7,3.6-2.5,5.9-1.8c2.2,0.7,3.2,2.7,3.3,4.8c0.5,6.6,1,13.2,1.1,19.8c0.1,4.3-0.5,8.6-0.8,13.2c0,0-0.7,7.2,2.9,1.3
				c1.4-3.4,3-6.5,4.1-9.9c2.4-7.5,2.4-15.2,1.6-23c-1.4-13.6-2.4-27.3-1.8-41c0.4-9.3,0.5-18.7,0.5-28.1c0-3.6-0.6-7.2-1-10.8
				c-0.1-0.5-0.2-1-0.4-1.6c-2.3,1.6-2.8,3.9-3,6.2c-0.4,4.8-0.5,9.7-1.2,14.5c-0.6,4-1.3,8.1-2.8,11.9c-4,9.9-12.2,13.8-22.4,10.8
				c-4.3-1.2-8.5-3-12.5-5c-7.5-3.6-15.3-4.9-23.5-3.3c-0.7,0.1-1.4,0.5-2.1,0.7c0,0.2,0,0.4-0.1,0.5c1.2,0.4,2.3,0.9,3.5,1.1
				c12.9,1.8,24.4,7.5,35.6,13.7C89.9,133.2,92.2,141.1,88.1,149.4z"/>
			<path class="st0" d="M134.2,47.6c0,6.4-5.3,11.7-11.6,11.6c-6.4-0.1-11.6-5.4-11.6-11.7c0-6.6,5.2-11.7,12.1-11.6
				C129.2,35.8,134.2,41.1,134.2,47.6z"/>
			<path class="st0" d="M162,114.5c0,3.4-2.6,6-6,6c-3.3,0-6-2.7-6-6c0-3.4,2.6-6,6-6.1C159.3,108.5,162,111.2,162,114.5z"/>
			<path class="st0" d="M95.2,114.2c0,3.4-2.5,6-5.9,6.1c-3.3,0-6-2.7-6-6c0-3.4,2.6-6.1,5.9-6.1C92.6,108.2,95.2,110.8,95.2,114.2z
				"/>
			<g>
				<g>
					<path class="st0" d="M123.8,29.1v3.9c0,1-0.8,1.8-1.8,1.8c-1,0-1.8-0.8-1.8-1.8v-3.9H123.8z"/>
					<path class="st0" d="M123.8,25.4v3.8h-3.6v-3.8c0-1,0.8-1.8,1.8-1.8c0.5,0,0.9,0.2,1.3,0.5C123.6,24.4,123.8,24.9,123.8,25.4z"
						/>
				</g>
				<path class="st0" d="M138.2,37.3l-2.9,2.6c-0.7,0.7-1.9,0.6-2.5-0.2c-0.7-0.7-0.6-1.9,0.2-2.5l2.9-2.6L138.2,37.3z"/>
				<path class="st0" d="M141,34.8l-2.8,2.5l-2.4-2.7l2.8-2.5c0.7-0.7,1.9-0.6,2.5,0.2c0.3,0.4,0.5,0.8,0.4,1.3
					C141.6,34,141.4,34.4,141,34.8z"/>
				<path class="st0" d="M140.3,53.3l-3.8-0.8c-1-0.2-1.6-1.2-1.4-2.1c0.2-1,1.2-1.6,2.1-1.4l3.8,0.8L140.3,53.3z"/>
				<path class="st0" d="M144,54.1l-3.7-0.8l0.7-3.5l3.7,0.8c1,0.2,1.6,1.2,1.4,2.1c-0.1,0.5-0.4,0.9-0.8,1.1
					C145,54.1,144.5,54.2,144,54.1z"/>
				<path class="st0" d="M129.9,64.9l-2.1-3.3c-0.5-0.8-0.3-1.9,0.6-2.5c0.8-0.5,1.9-0.3,2.5,0.6L133,63L129.9,64.9z"/>
				<path class="st0" d="M132,68.1l-2-3.2l3-1.9l2,3.2c0.5,0.8,0.3,1.9-0.6,2.5c-0.4,0.3-0.9,0.3-1.3,0.2
					C132.6,68.8,132.2,68.5,132,68.1z"/>
				<g>
					<path class="st0" d="M106.7,38.4l-3.1-2.4c-0.8-0.6-0.9-1.7-0.3-2.5c0.6-0.8,1.7-0.9,2.5-0.3l3.1,2.4L106.7,38.4z"/>
					<path class="st0" d="M109.7,40.7l-3-2.3l2.2-2.8l3,2.3c0.8,0.6,0.9,1.7,0.3,2.5c-0.3,0.4-0.7,0.6-1.2,0.7
						C110.6,41.1,110.1,41,109.7,40.7z"/>
				</g>
				<path class="st0" d="M116.9,65l-1.8,3.5c-0.5,0.9-1.5,1.2-2.4,0.7c-0.9-0.5-1.2-1.5-0.7-2.4l1.8-3.5L116.9,65z"/>
				<path class="st0" d="M118.7,61.6l-1.8,3.4l-3.2-1.7l1.8-3.4c0.5-0.9,1.5-1.2,2.4-0.7c0.4,0.2,0.7,0.6,0.9,1.1
					C118.9,60.7,118.9,61.2,118.7,61.6z"/>
				<g>
					<path class="st0" d="M105.6,54.2l-3.8,0.8c-1,0.2-1.9-0.4-2.1-1.4c-0.2-1,0.4-1.9,1.4-2.1l3.8-0.8L105.6,54.2z"/>
					<path class="st0" d="M109.3,53.4l-3.7,0.8l-0.7-3.5l3.7-0.8c1-0.2,1.9,0.4,2.1,1.4c0.1,0.5,0,1-0.3,1.3
						C110.2,53,109.8,53.3,109.3,53.4z"/>
				</g>
				<g>
					<path class="st0" d="M116.9,65l-1.8,3.4c-0.5,0.9-1.5,1.2-2.4,0.7c-0.9-0.5-1.2-1.5-0.7-2.4l1.8-3.4L116.9,65z"/>
					<path class="st0" d="M118.7,61.6l-1.8,3.3l-3.2-1.7l1.8-3.3c0.5-0.9,1.5-1.2,2.4-0.7c0.4,0.2,0.7,0.6,0.9,1.1
						C119,60.7,118.9,61.2,118.7,61.6z"/>
				</g>
			</g>
			<g>
				<path class="st0" d="M130.1,185.7"/>
			</g>
			<g>
				<path class="st0" d="M143.4,178.2"/>
			</g>
			<path class="st0" d="M154.4,204.1l-18.7,9l-6.4-13.2l18.7-9c3.7-1.8,8-0.2,9.8,3.4l0,0C159.6,198,158.1,202.4,154.4,204.1z"/>
			<path class="st0" d="M90.7,203.2l18.7,9l6.4-13.2l-18.7-9c-3.7-1.8-8-0.2-9.8,3.4l0,0C85.5,197.1,87.1,201.4,90.7,203.2z"/>
			<g>
				<circle class="st0" cx="132.5" cy="209.1" r="1.4"/>
				<circle class="st0" cx="129.1" cy="208" r="1.4"/>
				<circle class="st0" cx="113.1" cy="221.6" r="1.2"/>
				<circle class="st0" cx="125.6" cy="207.2" r="1.2"/>
				<circle class="st0" cx="126.7" cy="212.7" r="1.2"/>
				<circle class="st0" cx="125.4" cy="227" r="1.2"/>
				<circle class="st0" cx="128.2" cy="215.5" r="1.2"/>
				<circle class="st0" cx="126.4" cy="218" r="1.1"/>
				<circle class="st0" cx="126.3" cy="220.9" r="0.6"/>
				<circle class="st0" cx="124.7" cy="224.4" r="1.4"/>
				<circle class="st0" cx="118.6" cy="228.9" r="0.6"/>
				<circle class="st0" cx="122.8" cy="236.1" r="0.6"/>
				<circle class="st0" cx="122.4" cy="227.2" r="0.6"/>
				<circle class="st0" cx="119" cy="231.7" r="0.3"/>
				<circle class="st0" cx="125.9" cy="229.9" r="1.2"/>
				<circle class="st0" cx="120.5" cy="236.3" r="1.4"/>
				<circle class="st0" cx="117.6" cy="233.2" r="1.2"/>
				<circle class="st0" cx="123.5" cy="206.4" r="0.8"/>
				<circle class="st0" cx="124.2" cy="210" r="0.8"/>
				<circle class="st0" cx="121.3" cy="211.8" r="0.8"/>
				<circle class="st0" cx="127.2" cy="211.3" r="0.6"/>
				<circle class="st0" cx="134.4" cy="211.5" r="0.7"/>
				<circle class="st0" cx="130.2" cy="211.4" r="0.6"/>
				<circle class="st0" cx="131.1" cy="214.1" r="0.6"/>
				<circle class="st0" cx="122" cy="214.7" r="1.4"/>
				<circle class="st0" cx="124.2" cy="212" r="0.7"/>
				<circle class="st0" cx="129.8" cy="204.4" r="1.2"/>
				<circle class="st0" cx="126.4" cy="204.3" r="0.8"/>
				<circle class="st0" cx="124.6" cy="215.3" r="1"/>
				<circle class="st0" cx="120.3" cy="222.5" r="1"/>
				<circle class="st0" cx="124.1" cy="219.4" r="0.8"/>
				<circle class="st0" cx="127.1" cy="222.8" r="1"/>
				<circle class="st0" cx="124.4" cy="221.6" r="0.7"/>
				<circle class="st0" cx="122" cy="224.2" r="0.4"/>
				<circle class="st0" cx="122.7" cy="229.7" r="0.4"/>
				<circle class="st0" cx="118.6" cy="237.1" r="0.4"/>
				<circle class="st0" cx="122.8" cy="217.9" r="0.7"/>
				<circle class="st0" cx="126.3" cy="201.6" r="1.4"/>
			</g>
			<g>
				<circle class="st0" cx="107.7" cy="208" r="1.4"/>
				<circle class="st0" cx="111.2" cy="206.8" r="1.4"/>
				<circle class="st0" cx="122.2" cy="221.3" r="1.2"/>
				<circle class="st0" cx="114.7" cy="206" r="1.2"/>
				<circle class="st0" cx="113.6" cy="211.6" r="1.2"/>
				<circle class="st0" cx="120.4" cy="225.1" r="1.2"/>
				<circle class="st0" cx="112.1" cy="214.4" r="1.2"/>
				<circle class="st0" cx="113.8" cy="216.9" r="1.1"/>
				<circle class="st0" cx="114" cy="219.8" r="0.6"/>
				<circle class="st0" cx="115.5" cy="223.3" r="1.4"/>
				<circle class="st0" cx="121.6" cy="227.8" r="0.6"/>
				<circle class="st0" cx="117.9" cy="226" r="0.6"/>
				<circle class="st0" cx="121.2" cy="230.5" r="0.3"/>
				<circle class="st0" cx="116.5" cy="227.8" r="1.2"/>
				<circle class="st0" cx="121.6" cy="233.2" r="1.4"/>
				<circle class="st0" cx="119.4" cy="229.3" r="1.2"/>
				<circle class="st0" cx="116.8" cy="205.2" r="0.8"/>
				<circle class="st0" cx="116.1" cy="208.8" r="0.8"/>
				<circle class="st0" cx="119" cy="210.7" r="0.8"/>
				<circle class="st0" cx="113" cy="210.1" r="0.6"/>
				<circle class="st0" cx="110.1" cy="210.2" r="0.6"/>
				<circle class="st0" cx="110.4" cy="212.6" r="0.6"/>
				<circle class="st0" cx="118.9" cy="214.9" r="1.4"/>
				<circle class="st0" cx="116.1" cy="210.9" r="0.7"/>
				<circle class="st0" cx="134.6" cy="213.2" r="0.7"/>
				<circle class="st0" cx="110.4" cy="203.3" r="1.2"/>
				<circle class="st0" cx="113.8" cy="203.1" r="0.8"/>
				<circle class="st0" cx="116.3" cy="214" r="1"/>
				<circle class="st0" cx="119.8" cy="217.7" r="1"/>
				<circle class="st0" cx="116.1" cy="218.2" r="0.8"/>
				<circle class="st0" cx="119.7" cy="220.3" r="1"/>
				<circle class="st0" cx="116.3" cy="221.3" r="0.7"/>
				<circle class="st0" cx="118.5" cy="223" r="0.4"/>
				<circle class="st0" cx="117.8" cy="219.9" r="0.7"/>
				<circle class="st0" cx="114" cy="200.4" r="1.4"/>
			</g>
			<line class="st0" x1="120.2" y1="239.1" x2="120.2" y2="238.7"/>
		</g>
	</g>
	<text transform="matrix(1 0 0 1 230.061 203.4189)" class="st0 st1 st2">emedilife</text>
</g>
</svg>
